<svg width="56" height="38" viewBox="0 0 56 38" fill="none" xmlns="http://www.w3.org/2000/svg">
<path d="M2.98862 16.9578C1.60791 16.961 0.491207 18.0829 0.494391 19.4636C0.497576 20.8443 1.61944 21.961 3.00015 21.9578L2.98862 16.9578ZM54.7661 21.1062C55.7401 20.1276 55.7365 18.5447 54.7579 17.5707L38.8114 1.6975C37.8328 0.723441 36.2499 0.727092 35.2759 1.70565C34.3018 2.68421 34.3055 4.26712 35.284 5.24118L49.4587 19.3507L35.3492 33.5254C34.3752 34.5039 34.3788 36.0868 35.3574 37.0609C36.336 38.035 37.9189 38.0313 38.8929 37.0527L54.7661 21.1062ZM3.00015 21.9578L53 21.8425L52.9885 16.8425L2.98862 16.9578L3.00015 21.9578Z" fill="black"/>
</svg>
