<svg width="40" height="40" viewBox="0 0 40 40" fill="none" xmlns="http://www.w3.org/2000/svg">
<circle cx="20" cy="20" r="20" fill="black"/>
<path d="M11.6903 31V9.18182H20.7884C22.4219 9.18182 23.7891 9.41264 24.8899 9.87429C25.9979 10.3359 26.8288 10.9822 27.3828 11.8132C27.9439 12.6442 28.2244 13.6065 28.2244 14.7003C28.2244 15.5312 28.0504 16.2734 27.7024 16.9268C27.3544 17.5732 26.875 18.1094 26.2642 18.5355C25.6534 18.9616 24.9467 19.2599 24.1442 19.4304V19.6435C25.0249 19.6861 25.8381 19.924 26.5838 20.3572C27.3366 20.7905 27.9403 21.3942 28.3949 22.1683C28.8494 22.9354 29.0767 23.8445 29.0767 24.8956C29.0767 26.0675 28.7784 27.1151 28.1818 28.0384C27.5852 28.9545 26.7223 29.679 25.593 30.2116C24.4638 30.7372 23.093 31 21.4808 31H11.6903ZM16.9638 26.7493H20.2237C21.3672 26.7493 22.2088 26.5327 22.7486 26.0994C23.2955 25.6662 23.5689 25.0625 23.5689 24.2884C23.5689 23.7273 23.4375 23.2443 23.1747 22.8395C22.9119 22.4276 22.5391 22.1115 22.0561 21.8913C21.5732 21.6641 20.9943 21.5504 20.3196 21.5504H16.9638V26.7493ZM16.9638 18.152H19.8828C20.4581 18.152 20.9695 18.0561 21.4169 17.8643C21.8643 17.6726 22.2124 17.3956 22.4609 17.0334C22.7166 16.6712 22.8445 16.2344 22.8445 15.723C22.8445 14.9915 22.5852 14.4162 22.0668 13.9972C21.5483 13.5781 20.8487 13.3686 19.968 13.3686H16.9638V18.152Z" fill="white"/>
</svg>
